<svg width="202" height="136" viewBox="0 0 202 136" fill="none" xmlns="http://www.w3.org/2000/svg">
<g clip-path="url(#clip0_713_334)">
<path d="M37.2553 59.6348C42.8288 56.5309 46.483 52.4694 46.1385 48.2428C45.5971 41.7928 37.6736 36.9168 24.5211 37.7973C24.3735 37.7973 24.2381 37.8193 24.0905 37.8303C30.4391 23.4114 41.6846 1.36482 50.6416 2.22335C55.3416 2.69664 58.5036 9.64193 60.2015 15.3435C59.7954 15.7947 59.4633 16.6423 58.9834 18.2382C57.9253 21.7494 58.1468 22.0686 57.507 23.8407C57.1256 24.8974 56.3751 26.9886 54.5664 29.113C53.5083 30.3567 52.9054 30.6429 51.9827 32.0848C51.146 33.3836 50.6293 34.1981 50.5063 35.3758C50.3955 36.3885 50.6539 37.0379 50.1371 38.0065C49.9034 38.4357 49.6327 38.7329 49.768 38.9971C50.0141 39.4704 51.3552 39.3493 51.6136 39.3273C54.2588 39.0521 56.0552 36.8067 56.3997 36.3664C57.8146 34.5283 58.0853 32.7012 58.2452 32.7452C58.3805 32.7782 57.8884 34.1651 57.8761 36.0362C57.8761 36.9938 57.8638 38.4577 58.6143 39.9877C58.8112 40.3729 60.386 43.5869 63.0313 43.6089C64.5938 43.6309 65.7504 42.5192 66.3532 41.9579C67.9281 40.461 68.2603 38.6228 68.5679 37.0158C68.9247 35.0566 68.8263 33.3946 68.937 33.3946C69.0723 33.3946 68.6663 35.728 70.0443 37.6762C71.1639 39.2612 73.3417 40.45 74.0922 39.9877C75.4087 39.1732 72.3451 33.3506 71.5084 31.7436C69.749 28.3865 67.4606 25.4807 67.4606 25.4807C65.209 22.5419 64.1632 21.8925 63.9541 20.0434C63.7695 18.3263 64.4954 17.2586 63.5849 16.0919C63.3635 15.8167 63.0682 15.5526 62.736 15.3545C61.075 9.48783 57.4824 0.693403 50.9246 0.0440015C42.4966 -0.803522 32.826 11.6562 21.3345 38.1055C5.29064 40.0757 0.0124063 47.9896 0.0124063 47.9896C-0.221362 49.2224 2.43621 51.886 5.27833 51.6989C6.22571 51.6329 10.3228 49.5416 10.8765 48.9582C11.061 48.7601 10.5443 48.2538 10.7288 48.0557C12.845 45.7883 15.8717 43.1026 23.0201 42.6293C30.3653 42.134 34.4993 45.315 34.8438 49.4755C35.2006 53.7572 32.0017 56.8831 26.4774 58.9524L24.2504 59.1065C25.0871 53.7792 25.8622 49.1123 26.4774 46.8339C23.5245 45.5131 17.139 44.6656 15.355 48.4299C13.94 51.864 11.2948 67.2625 9.67071 79.436C6.70555 78.8417 4.61394 78.2033 4.20792 78.1592C2.26396 80.8999 1.83333 83.7727 4.86001 85.1486C5.63514 85.4568 7.07465 85.7319 8.85867 85.908C8.80946 86.1502 8.76024 86.4033 8.78485 86.6455C9.36312 87.0307 14.2599 88.8909 17.5696 88.7918C19.2675 88.7918 20.2026 88.6157 20.5717 86.5244C20.5717 86.4033 20.6086 86.2162 20.6086 86.0952L22.4295 85.9741C35.7789 85.0825 49.7803 79.1168 48.9806 69.5189C48.55 64.3347 43.8008 61.0107 37.243 59.6348M21.3468 80.2175C21.9374 75.9359 22.6264 70.3114 23.4507 64.797C30.0331 63.9935 35.5574 66.1068 35.9019 70.2674C36.4802 77.1466 28.2122 79.5791 21.3468 80.2175Z" fill="white"/>
<path d="M68.5927 70.2784C67.8791 72.5898 66.5257 75.0773 64.3111 75.2314C63.499 75.2865 62.6747 74.3729 62.6501 72.4357C62.5763 68.3742 65.037 57.9618 66.2058 53.2729C67.104 50.235 58.4054 49.1894 56.3876 49.3214C55.7109 49.3655 54.8496 49.5416 54.6282 50.224C52.8934 54.6487 49.5591 68.3302 50.002 73.5144C50.4942 79.425 54.8373 81.9236 61.309 81.4943C65.2954 81.2301 68.9249 79.6011 71.521 77.5098C74.8552 80.9109 80.5641 82.5069 85.9038 82.1547C93.9873 81.6154 98.6011 77.5209 100.496 73.4373C103.338 76.4642 108.075 77.8841 114.522 77.4548C127.404 76.5963 130.246 59.4807 129.815 54.4176C129.348 48.8041 123.221 43.5759 117.278 43.9721C113.71 44.2143 111.877 46.6358 109.822 49.6847C110.585 45.8763 113.415 36.6526 114.337 33.9229C114.202 32.2389 108.087 30.5218 104.827 31.2813C103.129 31.6885 96.7556 54.1974 97.3831 65.3473C96.7925 65.2923 96.1773 65.2703 95.5375 65.3143C94.4548 65.3914 93.7535 65.9197 93.7535 65.9197C93.3598 69.3978 90.0625 76.112 83.7261 76.5412C81.2285 76.7064 79.6413 75.5396 79.3953 72.5898C79.0508 68.4292 80.2073 65.3143 80.2688 65.1932C80.4288 65.4244 82.3973 67.9009 86.2976 67.6367C90.6776 67.3396 95.3653 60.9666 94.7255 53.2509C94.1718 46.6138 86.7405 44.5005 82.8279 44.7646C72.9974 45.425 68.076 59.4367 68.5804 70.2784M109.01 61.7481L110.265 62.2104C110.326 62.2104 110.929 62.0453 110.929 61.9793C110.929 58.7653 113.624 49.6076 116.995 49.3875C118.41 49.2884 118.41 50.9284 118.471 52.5024C118.459 53.1078 117.635 70.9278 111.508 71.346C109.822 71.4561 108.53 69.7831 108.493 67.7248C108.444 63.9715 109.01 61.7481 109.01 61.7481ZM83.9107 50.9945C84.2429 50.18 84.5012 49.9818 84.7719 49.9708C85.1041 49.9488 85.5347 50.158 85.6578 52.4033C85.9285 56.5089 84.6489 62.1774 82.4219 62.3205C81.2039 62.3975 80.8348 61.1537 80.8348 61.1537C81.2531 58.0278 82.668 53.9333 83.923 51.0055" fill="white"/>
<path d="M137.148 88.5607C139.092 88.4286 140.851 87.6581 142.143 86.6455C142.623 87.6581 143.472 88.2525 144.961 88.1535C146.671 88.0434 147.643 87.427 147.643 87.427C147.569 84.9835 148.947 80.7789 150.165 78.3354L150.534 78.3134C150.276 79.6562 149.845 82.2648 149.882 83.4095C149.919 85.5228 151.297 87.7572 155.492 87.482C159.159 87.2399 161.164 84.202 161.054 82.9032C160.894 81.0431 158.433 81.4173 158.433 81.4173C158.224 82.1327 157.436 84.5102 156.427 84.5762C155.554 84.6313 155.123 83.9929 155.025 82.6721C154.767 79.5461 156.563 74.7912 156.809 71.6322C156.87 70.6637 153.352 69.8932 151.937 69.9922C151.063 70.0473 150.719 70.4325 150.608 70.6857C148.959 73.6135 147.877 76.7944 146.732 79.7773H146.597C146.585 77.2127 147.126 74.7362 147.692 72.1826C147.84 71.5112 145.773 71.0379 144.555 71.1259C142.635 71.258 141.516 76.035 141.516 81.3513C141.282 81.3513 141.11 81.3623 141.11 81.3623C141.023 82.3969 140.359 85.3137 138.637 85.4238C138.231 85.4458 137.825 84.9945 137.812 84.0259C137.775 82.0006 139.006 76.8054 139.584 74.472C140.039 72.9641 135.696 72.4357 134.687 72.5018C134.355 72.5238 133.924 72.6119 133.814 72.9531C132.952 75.1544 131.291 81.9786 131.5 84.5652C131.747 87.5151 133.912 88.7588 137.136 88.5387" fill="white"/>
<path d="M137.05 70.9058C140.876 70.6527 141.983 68.4293 141.885 67.2846C141.799 66.316 140.864 65.9968 139.929 65.7547C140.273 64.5769 139.313 64.4338 137.763 64.5439C134.736 64.742 134.183 67.8019 134.269 68.8255C134.404 70.4215 136.041 70.9719 137.05 70.9058Z" fill="white"/>
<path d="M86.8754 106.843C92.4489 103.739 96.1031 99.6776 95.7586 95.4509C95.2172 89.001 87.2937 84.136 74.1412 85.0055C55.5998 86.2493 49.6325 95.1978 49.6325 95.1978C49.3988 96.4306 52.0563 99.1052 54.8984 98.9071C55.8458 98.841 59.9429 96.7498 60.4966 96.1664C60.6811 95.9683 60.1644 95.462 60.3489 95.2638C62.4651 92.9964 65.4918 90.3108 72.6402 89.8375C79.9854 89.3422 84.1194 92.5231 84.4639 96.6837C84.8207 100.965 81.6218 104.091 76.0975 106.161L73.8706 106.304C74.7072 100.976 75.47 96.3095 76.0975 94.0311C73.1446 92.7103 66.7591 91.8627 64.9751 95.6271C63.5602 99.0612 60.9149 114.46 59.2908 126.633C56.3257 126.039 54.2341 125.389 53.828 125.356C51.8841 128.097 51.4534 130.97 54.4801 132.346C55.2553 132.654 56.6948 132.929 58.4788 133.105C58.4296 133.347 58.3804 133.601 58.405 133.843C58.9832 134.228 63.8801 136.088 67.1897 135.989C68.8876 135.989 69.8227 135.813 70.1918 133.722C70.1918 133.601 70.2287 133.413 70.2287 133.292L72.0496 133.171C85.399 132.28 99.4005 126.314 98.6007 116.716C98.1701 111.532 93.4209 108.208 86.8631 106.832M70.9669 127.437C71.5575 123.155 72.2465 117.531 73.0708 112.016C79.6532 111.213 85.1775 113.326 85.522 117.487C86.1003 124.366 77.8323 126.798 70.9669 127.437Z" fill="white"/>
<path d="M107.977 81.0541C107.435 81.0871 106.635 81.2082 106.475 81.7035C103.695 92.259 101.148 112.016 100.976 121.427C100.939 123.375 100.68 126.061 101.296 126.864C101.923 127.855 111.532 130.067 112.517 128.967C112.517 127.327 112.578 125.687 112.652 124.047C112.898 110.805 114.928 96.8488 117.573 83.8718C117.819 82.7601 110.474 80.889 107.989 81.0541" fill="white"/>
<path d="M134.416 93.3597C132.189 93.5138 130.774 94.3943 130.774 94.3943C130.393 93.8109 129.335 93.3377 127.945 93.0074C121.227 94.6034 115.407 105.192 115.53 113.183C115.752 119.963 120.575 128.13 131.771 127.382C145.453 126.468 148.282 111.598 148.184 104.818C147.926 98.4668 145.674 92.6112 134.416 93.3707M137.443 103.585C137.357 106.689 135.708 121.042 130.258 121.405C127.76 121.57 126.554 118.378 126.677 114.251C126.653 112.313 127.071 110.772 127.071 110.772C127.366 111.059 128.744 111.323 128.793 111.147C129.286 108.076 131.956 98.6209 135.388 98.3898C137.75 98.2357 137.443 101.945 137.455 103.585" fill="white"/>
<path d="M195.726 109.154C195.553 111.224 194.212 117.079 190.78 117.31C189.967 117.365 189.143 116.452 189.119 114.515C189.045 110.453 191.505 100.041 192.674 95.3519C193.572 92.314 184.874 91.2684 182.856 91.4004C182.179 91.4445 181.318 91.6206 181.097 92.303C179.78 95.6491 177.565 104.3 176.741 110.563C176.187 110.519 175.622 110.497 175.031 110.541C173.948 110.618 173.247 111.147 173.247 111.147C172.853 114.625 169.556 121.339 163.22 121.768C160.722 121.933 159.135 120.767 158.889 117.817C158.544 113.656 159.701 110.541 159.762 110.42C159.91 110.651 161.891 113.128 165.791 112.864C170.171 112.567 174.859 106.194 174.219 98.4778C173.665 91.8407 166.234 89.7274 162.321 89.9916C152.146 90.674 147.225 105.676 148.148 116.65C148.775 124.19 157.498 127.91 165.385 127.382C171.967 126.941 176.249 124.146 178.636 120.921C180.604 123.001 183.779 123.848 187.777 123.584C195.799 123.045 202.345 117.035 201.988 112.754C201.644 108.593 195.726 109.165 195.726 109.165M163.392 96.2104C163.724 95.3959 163.982 95.1978 164.253 95.1868C164.585 95.1648 165.016 95.3739 165.127 97.6193C165.397 101.725 164.118 107.393 161.891 107.536C160.673 107.613 160.304 106.37 160.304 106.37C160.722 103.244 162.137 99.1492 163.392 96.2214" fill="white"/>
<path d="M187.604 88.1645C195.294 87.6471 197.497 83.2004 197.3 80.911C197.14 78.9848 195.257 78.3244 193.387 77.8401C194.076 75.4846 192.144 75.1985 189.044 75.3966C182.978 75.8038 181.859 81.9456 182.031 83.9929C182.302 87.1849 185.574 88.3075 187.604 88.1645Z" fill="white"/>
</g>
<defs>
<clipPath id="clip0_713_334">
<rect width="202" height="136" fill="white"/>
</clipPath>
</defs>
</svg>
